<svg xmlns="http://www.w3.org/2000/svg" width="179.147" height="31.455" viewBox="0 0 179.147 31.455"><g id="Group_118" data-name="Group 118" transform="translate(-83.699 -193.612)"><g id="Group_107" data-name="Group 107" transform="translate(212.876 193.612)"><path id="Path_26192" data-name="Path 26192" d="M313.938,225.067a20.213,20.213,0,0,1-6.836-1.112,15.922,15.922,0,0,1-5.391-3.167,14.431,14.431,0,0,1-3.557-4.946,15.9,15.9,0,0,1-1.278-6.5,15.674,15.674,0,0,1,1.306-6.474,14.352,14.352,0,0,1,3.641-4.974,16.554,16.554,0,0,1,5.474-3.168,20.28,20.28,0,0,1,6.807-1.111,18.71,18.71,0,0,1,3.029.25,21.309,21.309,0,0,1,2.945.694,21.533,21.533,0,0,1,2.612,1,9.969,9.969,0,0,1,2.028,1.222L318.328,206a4.285,4.285,0,0,0-1.75-1.153,5.979,5.979,0,0,0-2.084-.4,5.584,5.584,0,0,0-1.834.306,4.457,4.457,0,0,0-1.584.944,5.129,5.129,0,0,0-1.139,1.556,5.369,5.369,0,0,0,0,4.279,4.476,4.476,0,0,0,1.139,1.5,4.9,4.9,0,0,0,1.584.889,5.583,5.583,0,0,0,1.834.306,5.845,5.845,0,0,0,2.167-.417,4.579,4.579,0,0,0,1.723-1.139l6.446,8.965a16.087,16.087,0,0,1-4.752,2.433A18.879,18.879,0,0,1,313.938,225.067Z" transform="translate(-281.958 -193.612)" fill="#802a16"></path><path id="Path_26193" data-name="Path 26193" d="M279.283,195.256l11.117,6.419-4.477,7.755-11.117-6.419Z" transform="translate(-274.806 -194.145)" fill="#802a16"></path><path id="Path_26194" data-name="Path 26194" d="M318.271,193.612a20.207,20.207,0,0,1,6.835,1.112,15.91,15.91,0,0,1,5.391,3.168,14.413,14.413,0,0,1,3.557,4.945,15.9,15.9,0,0,1,1.278,6.5,15.677,15.677,0,0,1-1.305,6.475,14.375,14.375,0,0,1-3.641,4.974,16.552,16.552,0,0,1-5.474,3.167,20.265,20.265,0,0,1-6.808,1.111,18.774,18.774,0,0,1-3.028-.249,21.688,21.688,0,0,1-5.558-1.7,9.932,9.932,0,0,1-2.028-1.222l6.39-9.225a4.285,4.285,0,0,0,1.75,1.153,5.98,5.98,0,0,0,2.085.4,5.587,5.587,0,0,0,1.834-.306,4.45,4.45,0,0,0,1.584-.944,5.132,5.132,0,0,0,1.14-1.556,5.377,5.377,0,0,0,0-4.279,4.478,4.478,0,0,0-1.14-1.5,4.915,4.915,0,0,0-1.584-.889,5.586,5.586,0,0,0-1.834-.306,5.846,5.846,0,0,0-2.168.417,4.592,4.592,0,0,0-1.722,1.139l-6.447-8.965a16.1,16.1,0,0,1,4.752-2.433A18.884,18.884,0,0,1,318.271,193.612Z" transform="translate(-285.361 -193.612)" fill="#b6451b"></path><path id="Path_26195" data-name="Path 26195" d="M281.43,195.256h12.837v29.232H281.43Z" transform="translate(-276.953 -194.145)" fill="#b6451b"></path></g><g id="Group_109" data-name="Group 109" transform="translate(83.699 193.719)"><g id="Group_108" data-name="Group 108"><path id="Path_26196" data-name="Path 26196" d="M83.7,209.562v-.11c0-8.463,6.582-15.6,16.041-15.6,6.14,0,10.234,2.656,12.778,6.693l-7.135,5.31c-1.438-1.991-3.042-3.153-5.587-3.153-3.374,0-5.863,2.987-5.863,6.638v.111c0,3.872,2.434,6.8,5.974,6.8,2.489,0,4.093-1.162,5.753-3.1l7.024,5.089c-2.765,4.093-6.748,6.859-13.33,6.859A15.441,15.441,0,0,1,83.7,209.562Z" transform="translate(-83.699 -193.797)" fill="#4e5148"></path><path id="Path_26197" data-name="Path 26197" d="M129.019,209.535v-.11c0-8.519,6.97-15.654,16.594-15.654,9.569,0,16.483,7.024,16.483,15.543v.111c0,8.518-6.97,15.653-16.594,15.653C135.933,225.078,129.019,218.053,129.019,209.535Zm22.845,0v-.11a6.487,6.487,0,0,0-6.361-6.749c-3.816,0-6.25,3.042-6.25,6.638v.111a6.487,6.487,0,0,0,6.361,6.748C149.43,216.173,151.864,213.131,151.864,209.535Z" transform="translate(-98.385 -193.771)" fill="#4e5148"></path><path id="Path_26198" data-name="Path 26198" d="M184.5,194.508h10.51v6.029c1.714-4.093,4.48-6.748,9.458-6.527v11.063h-.885c-5.476,0-8.574,3.153-8.574,10.067v9.293H184.5Z" transform="translate(-116.364 -193.844)" fill="#4e5148"></path><path id="Path_26199" data-name="Path 26199" d="M216.9,209.535v-.11c0-8.74,6.25-15.654,15.1-15.654,10.343,0,15.1,7.578,15.1,16.373,0,.664,0,1.438-.055,2.158H227.022a6.177,6.177,0,0,0,6.471,4.923c2.489,0,4.48-.94,6.638-3.042l5.808,4.812a15.672,15.672,0,0,1-13,6.085C223.537,225.078,216.9,218.828,216.9,209.535Zm20.356-2.6c-.387-3.319-2.323-5.421-5.2-5.421-2.766,0-4.646,2.158-5.2,5.421Z" transform="translate(-126.864 -193.771)" fill="#4e5148"></path></g></g></g></svg>